<?xml version="1.0" encoding="UTF-8"?>
<svg id="Layer_1" data-name="Layer 1" xmlns="http://www.w3.org/2000/svg" viewBox="0 0 167.88 167.3">
  <defs>
    <style>
      .cls-1 {
        stroke-dasharray: 8.74 8.74;
      }

      .cls-1, .cls-2, .cls-3, .cls-4, .cls-5, .cls-6 {
        fill: none;
        stroke: #ffffff;
        stroke-linecap: round;
        stroke-linejoin: round;
        stroke-width: 4.19px;
      }

      .cls-2 {
        stroke-dasharray: 11.32 11.32;
      }

      .cls-4 {
        stroke-dasharray: 9.95 9.95;
      }

      .cls-5 {
        stroke-dasharray: 7.24 7.24;
      }

      .cls-6 {
        stroke-dasharray: 11.32 11.32;
      }
    </style>
  </defs>
  <g>
    <line class="cls-3" x1="80.79" y1="62.12" x2="85.35" y2="62.12"/>
    <line class="cls-5" x1="92.59" y1="62.12" x2="117.93" y2="62.12"/>
    <polyline class="cls-3" points="121.55 62.12 126.1 62.12 126.1 66.68"/>
    <line class="cls-2" x1="126.1" y1="77.99" x2="126.1" y2="94.97"/>
    <polyline class="cls-3" points="126.1 100.63 126.1 105.18 121.55 105.18"/>
    <line class="cls-5" x1="114.31" y1="105.18" x2="88.97" y2="105.18"/>
    <line class="cls-3" x1="85.35" y1="105.18" x2="80.79" y2="105.18"/>
  </g>
  <path class="cls-3" d="M80.79,62.12h-39.01v43.06h39.01"/>
  <g>
    <path class="cls-3" d="M80.79,96.06c2.22,0,4.3-.58,6.1-1.6"/>
    <path class="cls-1" d="M92.44,87.93c.49-1.33.76-2.77.76-4.28,0-3.07-1.11-5.87-2.95-8.04"/>
    <path class="cls-3" d="M86.9,72.85c-1.8-1.02-3.89-1.6-6.1-1.6"/>
  </g>
  <rect class="cls-3" x="41.78" y="62.12" width="15.2" height="43.06"/>
  <g>
    <path class="cls-3" d="M80.79,71.25c1.57,0,3.07.29,4.46.82"/>
    <path class="cls-4" d="M92.22,78.81c.63,1.49.98,3.12.98,4.84,0,3.5-1.45,6.67-3.79,8.92"/>
    <path class="cls-3" d="M85.25,95.23c-1.38.53-2.89.82-4.46.82"/>
  </g>
  <path class="cls-3" d="M80.79,96.06c-6.85,0-12.4-5.55-12.4-12.41s5.55-12.41,12.4-12.41"/>
  <g>
    <line class="cls-3" x1="110.9" y1="62.12" x2="110.9" y2="66.68"/>
    <line class="cls-6" x1="110.9" y1="77.99" x2="110.9" y2="94.97"/>
    <line class="cls-3" x1="110.9" y1="100.63" x2="110.9" y2="105.18"/>
  </g>
</svg>
