<?xml version="1.0" encoding="UTF-8"?>
<svg id="Layer_1" data-name="Layer 1" xmlns="http://www.w3.org/2000/svg" viewBox="0 0 168.49 168.49">
  <defs>
    <style>
      .cls-1 {
        fill: #ffffff;
      }
    </style>
  </defs>
  <path class="cls-1" d="M122.74,57.2c.01-1.73-.35-2.26-2.02-2.7-14.22-3.75-24.61-8.74-35.94-15.38h-1.06c-.45.26-.92.51-1.37.78-10.87,6.33-20.96,11.27-34.48,14.58-1.78.44-2.12.97-2.12,2.8,0,5.64-.07,11.28.02,16.93.06,3.4.24,6.81.6,10.18.55,5.01,1.99,9.82,3.98,14.44,3.48,8.07,8.66,14.9,15.32,20.59,4.35,3.71,9.07,6.88,14.45,8.95,1.64.64,3.3,1.23,5.13.9,2.93-.52,5.57-1.8,8.12-3.25,9.45-5.37,16.3-13.12,22.31-22.21,5.4-8.15,6.67-15.96,6.93-24.75.23-7.28.1-14.58.12-21.86ZM118.82,78.17c.14,13.63-3.93,21.5-10.91,30.43-5.04,6.46-11.22,11.56-18.58,15.21-.81.4-1.68.71-2.5,1.09-1.9.91-3.72.62-5.6-.16-4.7-1.97-8.92-4.71-12.8-7.98-5.41-4.58-9.84-9.97-13.09-16.31-3.12-6.11-5.17-12.56-5.46-19.41-.31-7.6-.23-15.21-.31-22.81,0-.06.02-.12.05-.22,2.15-.67,4.37-1.26,6.5-2.06,10.51-3.93,18.56-7.24,27.22-12.22.62-.36,1.09-.42,1.75-.03,10.4,5.93,20.57,10.61,32.84,13.97.78.21,1.04.55,1.02,1.38-.07,6.38-.21,12.75-.14,19.11Z"/>
  <path class="cls-1" d="M78.35,87.29c.2-.29.36-.63.6-.87,5.95-5.97,11.92-11.93,17.88-17.9,1.96-1.97,4.24-2.67,6.9-1.73,3.82,1.34,5.25,6.26,2.76,9.45-.31.39-.64.77-.99,1.12-7.5,7.5-14.99,15-22.49,22.5-3.06,3.06-6.62,3.06-9.67.02-3.51-3.51-7.03-7.01-10.53-10.54-2.51-2.54-2.72-5.99-.55-8.58,2.16-2.58,6.07-3.01,8.58-.77,2.25,2.02,4.33,4.23,6.47,6.36.27.27.44.63.66.94.13,0,.27,0,.4-.01ZM67.1,82.21c-1.05.18-1.85.66-2.26,1.49-.48.97-.25,2.02.67,2.95,3.49,3.49,6.98,6.98,10.47,10.47,1.6,1.6,2.74,1.6,4.33,0,7.48-7.48,14.96-14.96,22.44-22.44.25-.25.51-.49.71-.78.97-1.37.27-3.21-1.35-3.63-1.13-.29-1.9.27-2.64,1.01-6.42,6.42-12.84,12.84-19.26,19.26-1.68,1.68-2.44,1.68-4.09.03-2.41-2.41-4.81-4.84-7.25-7.21-.5-.48-1.18-.77-1.77-1.15Z"/>
  <path class="cls-1" d="M53.24,65.75c0-1.09-.01-2.17,0-3.26.02-1.23.44-1.81,1.61-2.22,3.28-1.17,6.56-2.33,9.85-3.49,1.25-.44,2.33-.03,2.72,1.02.4,1.06-.11,2.09-1.37,2.56-2.72,1.01-5.44,1.98-8.18,2.93-.6.21-.82.47-.8,1.12.05,1.58.02,3.17.01,4.76,0,1.35-.72,2.2-1.85,2.23-1.17.04-1.96-.82-1.99-2.2-.02-1.14,0-2.29,0-3.43Z"/>
  <path class="cls-1" d="M107.82,102.01c-.22.46-.4.96-.68,1.38-3.07,4.65-6.91,8.58-11.28,12.02-1.01.8-2.13.74-2.82-.11-.71-.87-.58-1.96.37-2.8,1.12-.99,2.29-1.93,3.4-2.93,2.74-2.46,5.11-5.26,7.17-8.32.43-.63.91-1.14,1.74-1.18,1.13-.05,1.98.75,2.1,1.94Z"/>
  <path class="cls-1" d="M90.01,115.29c1.02.05,1.86.98,1.78,2-.08,1.02-1.06,1.89-2.08,1.86-1.06-.04-1.84-.9-1.79-1.97.05-1.11.97-1.94,2.09-1.88Z"/>
  <path class="cls-1" d="M70.99,58.14c-.99,0-1.89-.94-1.87-1.95.02-.99.97-1.89,1.97-1.88.97.02,1.84.89,1.87,1.87.03,1.03-.89,1.95-1.96,1.96Z"/>
</svg>
