<?xml version="1.0" encoding="UTF-8"?>
<svg id="Layer_1" data-name="Layer 1" xmlns="http://www.w3.org/2000/svg" viewBox="0 0 168.05 168.05">
  <defs>
    <style>
      .cls-1 {
        fill: #7094ff;
      }
    </style>
  </defs>
  <path class="cls-1" d="M69.24,79.67c-.47,0-1.03,0-1.58,0-5.3-.02-10.6.06-15.89-.08-5.59-.15-10.06-5.14-9.84-10.76.18-4.67,2.99-8.35,7.5-9.8.49-.16.75-.32.78-.91.45-9.21,7.05-13.79,13.93-15.41,4.99-1.18,9.79-.4,14.42,1.62.62.27,1.02.23,1.55-.19,5.52-4.38,15.52-2.39,18.1,4.51.2.54.52.53.97.59,1.59.18,3.23.22,4.75.67,3.23.96,5.2,3.78,5.35,7.39.03.72.29.99.93,1.22,6.44,2.27,10.42,8.13,10.17,14.95-.03.72-.07,1.44-.11,2.25.17.09.39.22.62.32,3.65,1.56,5.57,4.88,5.19,8.95-.32,3.39-3.1,6.38-6.69,7.14-.73.15-1.5.17-2.26.17-12.24,0-24.48-.05-36.72.03-6.14.04-10.04-4.07-10.88-8.31-.27-1.36-.22-2.79-.32-4.35ZM104.96,57.83c.16-2.1-.82-3.72-2.8-4.05-1.66-.28-3.39-.2-5.09-.17-1.49.03-2.43-.66-2.53-2.11-.11-1.51-.82-2.69-1.94-3.63-2.72-2.28-8.01-2.89-11.06.67-.89,1.04-1.78,1.13-2.99.48-.32-.17-.63-.36-.96-.51-6.13-2.87-12.19-3.1-18,.73-3.78,2.49-5.37,6.2-5.09,10.67.13,1.96-.49,2.81-2.46,2.92-3.7.21-6.45,3.72-5.77,7.34.61,3.23,3.07,5.24,6.53,5.26,5.33.02,10.66-.04,15.99.03,1.61.02,3.05-.04,4.01-1.55.02-.03.05-.04.07-.06,2.35-2.08,5.15-2.78,8.22-2.67.84.03,1.68,0,2.58,0,0-.81-.06-1.47,0-2.12.36-3.42,1.88-6.06,5.19-7.4,2.26-.91,4.5-.61,6.72.24.28.11.77.14.94-.02,2.38-2.27,5.16-3.69,8.43-4.05ZM98.74,88.07c6.25,0,12.5.02,18.75,0,2.53-.01,4.36-1.72,4.47-4.06.1-2.2-1.6-4.05-3.99-4.34-1.98-.25-2.58-1.12-2.2-3.09.54-2.89.64-5.75-.69-8.48-2.17-4.46-6.92-6.84-11.31-5.64-2.17.59-3.84,1.93-5.29,3.61-.97,1.13-1.83,1.21-3.14.52-.81-.42-1.65-.83-2.53-1.05-2.39-.61-4.49.78-4.79,3.24-.14,1.18-.04,2.42.14,3.61.32,2.06-.47,3.09-2.55,3.09-2.01,0-4.01-.03-6.02.01-3.9.08-6.8,3.87-5.89,7.65.74,3.1,3.17,4.94,6.59,4.95,6.15.01,12.3,0,18.45,0Z"/>
  <path class="cls-1" d="M71.4,94.78c-.09.22-.24.69-.48,1.1-1.13,1.92-2.28,3.84-3.45,5.74-.78,1.28-1.97,1.64-3.07.97-1.04-.63-1.29-1.88-.57-3.1,1.2-2.04,2.41-4.07,3.65-6.08.57-.91,1.52-1.23,2.48-.93.84.26,1.45,1.11,1.44,2.3Z"/>
  <path class="cls-1" d="M86.22,126.22c-1.62-.18-2.7-1.73-1.97-3.07,1.25-2.3,2.63-4.54,4.03-6.76.59-.93,1.79-1.1,2.72-.57.91.52,1.39,1.7.86,2.65-1.3,2.32-2.68,4.59-4.12,6.82-.29.45-1,.62-1.52.92Z"/>
  <path class="cls-1" d="M100.44,98.95c-.07.19-.17.64-.39,1.02-1.16,1.98-2.34,3.95-3.54,5.91-.74,1.21-1.95,1.57-3.02.94-1.05-.61-1.32-1.9-.61-3.1,1.2-2.03,2.41-4.06,3.65-6.07.57-.93,1.53-1.27,2.46-.98.86.27,1.45,1.08,1.46,2.28Z"/>
  <path class="cls-1" d="M44.14,113.6c-1.69-.19-2.76-1.77-1.99-3.17,1.24-2.27,2.61-4.48,3.99-6.67.59-.93,1.8-1.12,2.71-.59.94.54,1.39,1.75.84,2.73-1.28,2.25-2.6,4.48-4.01,6.66-.31.48-1.02.7-1.54,1.04Z"/>
  <path class="cls-1" d="M125.72,105.27c-.08.2-.19.68-.43,1.09-1.14,1.95-2.31,3.89-3.49,5.82-.75,1.22-1.94,1.59-3.01.97-1.09-.62-1.34-1.91-.59-3.17,1.19-2,2.38-4.01,3.6-5.99.58-.94,1.51-1.28,2.45-1.01.87.26,1.46,1.07,1.48,2.28Z"/>
  <path class="cls-1" d="M56.21,117.97c-.08.2-.22.68-.46,1.09-1.11,1.9-2.25,3.78-3.39,5.66-.8,1.32-2.05,1.72-3.14,1.03-1.05-.66-1.25-1.91-.49-3.2,1.19-2,2.38-4.01,3.61-5.98.57-.91,1.55-1.23,2.48-.91.87.3,1.42,1.09,1.4,2.32Z"/>
  <path class="cls-1" d="M68.61,54.29c4.3.07,7.76,2.48,8.78,6.17.22.78.31,1.62.31,2.43,0,1.09-.86,1.92-1.92,2.02-1.04.1-1.98-.6-2.22-1.69-.12-.54-.12-1.12-.28-1.65-.6-1.98-2.97-3.33-5.31-3.04-1.26.16-2.41.59-3.39,1.45-1.11.98-2.42.94-3.23-.02-.82-.98-.65-2.19.47-3.21,1.73-1.58,4.25-2.5,6.79-2.45Z"/>
  <path class="cls-1" d="M55.5,98.09c-3.17,0-5.76-2.58-5.76-5.76s2.58-5.76,5.76-5.76,5.76,2.58,5.76,5.76-2.58,5.76-5.76,5.76ZM55.5,90.15c-1.21,0-2.19.98-2.19,2.19s.98,2.19,2.19,2.19,2.19-.98,2.19-2.19-.98-2.19-2.19-2.19Z"/>
  <path class="cls-1" d="M60.84,115.23c-3.17,0-5.76-2.58-5.76-5.76s2.58-5.76,5.76-5.76,5.76,2.58,5.76,5.76-2.58,5.76-5.76,5.76ZM60.84,107.29c-1.21,0-2.19.98-2.19,2.19s.98,2.19,2.19,2.19,2.19-.98,2.19-2.19-.98-2.19-2.19-2.19Z"/>
  <path class="cls-1" d="M81.94,108.65c-3.17,0-5.76-2.58-5.76-5.76s2.58-5.76,5.76-5.76,5.76,2.58,5.76,5.76-2.58,5.76-5.76,5.76ZM81.94,100.7c-1.21,0-2.19.98-2.19,2.19s.98,2.19,2.19,2.19,2.19-.98,2.19-2.19-.98-2.19-2.19-2.19Z"/>
  <path class="cls-1" d="M111.4,108.65c-3.17,0-5.76-2.58-5.76-5.76s2.58-5.76,5.76-5.76,5.76,2.58,5.76,5.76-2.58,5.76-5.76,5.76ZM111.4,100.7c-1.21,0-2.19.98-2.19,2.19s.98,2.19,2.19,2.19,2.19-.98,2.19-2.19-.98-2.19-2.19-2.19Z"/>
  <path class="cls-1" d="M74,122.7c-3.17,0-5.76-2.58-5.76-5.76s2.58-5.76,5.76-5.76,5.76,2.58,5.76,5.76-2.58,5.76-5.76,5.76ZM74,114.76c-1.21,0-2.19.98-2.19,2.19s.98,2.19,2.19,2.19,2.19-.98,2.19-2.19-.98-2.19-2.19-2.19Z"/>
  <path class="cls-1" d="M103.46,122.7c-3.17,0-5.76-2.58-5.76-5.76s2.58-5.76,5.76-5.76,5.76,2.58,5.76,5.76-2.58,5.76-5.76,5.76ZM103.46,114.76c-1.21,0-2.19.98-2.19,2.19s.98,2.19,2.19,2.19,2.19-.98,2.19-2.19-.98-2.19-2.19-2.19Z"/>
</svg>