<?xml version="1.0" encoding="UTF-8"?>
<svg id="Layer_1" data-name="Layer 1" xmlns="http://www.w3.org/2000/svg" viewBox="0 0 168.52 167.94">
  <defs>
    <style>
      .cls-1 {
        fill: #ffffff;
      }
    </style>
  </defs>
  <path class="cls-1" d="M45.91,86.65c0-1.8,0-3.59,0-5.39.17-1.21.29-2.42.5-3.62,1.37-7.81,4.76-14.59,10.29-20.29,5.76-5.94,12.71-9.7,20.88-11.14,1.32-.23,2.65-.4,3.98-.6,1.8,0,3.59,0,5.39,0,.24.05.48.12.72.15,1.31.19,2.63.3,3.92.56,8.75,1.74,16.07,6,21.81,12.81,7.61,9.01,10.53,19.46,8.66,31.09-1.56,9.71-6.34,17.69-14.06,23.76-9.36,7.36-20,9.82-31.67,7.48-7.35-1.47-13.68-4.99-19-10.27-5.74-5.69-9.38-12.52-10.82-20.49-.24-1.34-.4-2.7-.6-4.06ZM84.24,50.11c-18.63.02-33.87,15.28-33.84,33.88.04,18.61,15.2,33.78,33.82,33.82,18.6.04,33.87-15.21,33.88-33.84.01-18.62-15.25-33.87-33.86-33.86Z"/>
  <path class="cls-1" d="M82.01,77.2c0-2.2,0-4.39,0-6.59,0-1.39.93-2.37,2.24-2.37,1.31,0,2.24.97,2.25,2.37,0,3.92-.01,7.84.02,11.75,0,.37.19.82.45,1.09,4.02,4.06,8.06,8.1,12.11,12.13.69.68,1.08,1.45.83,2.42-.4,1.59-2.27,2.21-3.58,1.21-.18-.14-.33-.3-.49-.46-4.27-4.27-8.53-8.55-12.82-12.8-.7-.7-1.05-1.45-1.03-2.45.05-2.1.01-4.19.01-6.29Z"/>
  <path class="cls-1" d="M86.49,59.25c0,.77.02,1.54,0,2.31-.03,1.25-1.03,2.19-2.28,2.17-1.21-.02-2.18-.96-2.2-2.18-.02-1.54-.02-3.09,0-4.63.02-1.22.99-2.16,2.2-2.17,1.25-.01,2.24.92,2.27,2.18.02.77,0,1.54,0,2.31Z"/>
  <path class="cls-1" d="M59.58,81.72c.75,0,1.49-.01,2.24,0,1.26.03,2.21,1,2.21,2.24,0,1.24-.95,2.22-2.21,2.24-1.52.02-3.04.02-4.56,0-1.26-.02-2.21-1-2.21-2.24,0-1.24.95-2.21,2.21-2.24.77-.02,1.54,0,2.31,0Z"/>
  <path class="cls-1" d="M108.97,81.72c.77,0,1.54-.02,2.31,0,1.22.03,2.16,1,2.17,2.21.01,1.25-.93,2.25-2.18,2.27-1.54.02-3.09.02-4.63,0-1.25-.02-2.18-1.03-2.17-2.28.02-1.2.96-2.16,2.18-2.19.77-.02,1.54,0,2.31,0Z"/>
  <path class="cls-1" d="M82.01,108.64c0-.75-.01-1.49,0-2.24.02-1.27.99-2.22,2.23-2.22,1.25,0,2.23.94,2.25,2.2.02,1.52.02,3.04,0,4.56-.02,1.27-.99,2.22-2.23,2.22-1.24,0-2.22-.94-2.25-2.21-.02-.77,0-1.54,0-2.31Z"/>
  <path class="cls-1" d="M105.56,64.86c.02,1.26-1,2.3-2.25,2.3-1.19,0-2.24-1.04-2.26-2.23-.03-1.24,1.01-2.28,2.27-2.28,1.24,0,2.23.97,2.24,2.21Z"/>
  <path class="cls-1" d="M103.28,105.26c-1.24-.01-2.23-1-2.24-2.23,0-1.23,1.06-2.29,2.29-2.27,1.26.02,2.24,1.05,2.21,2.33-.03,1.25-1,2.19-2.26,2.17Z"/>
  <path class="cls-1" d="M65.17,62.66c1.27,0,2.3,1.01,2.28,2.26-.02,1.21-1.04,2.23-2.24,2.24-1.25.02-2.26-1.01-2.26-2.28,0-1.25.97-2.22,2.22-2.22Z"/>
  <path class="cls-1" d="M65.21,105.26c-1.24.01-2.24-.95-2.26-2.19-.03-1.26.98-2.31,2.22-2.32,1.22-.01,2.29,1.07,2.28,2.28-.01,1.22-1.02,2.21-2.24,2.23Z"/>
</svg>
