<?xml version="1.0" encoding="UTF-8"?>
<svg id="Layer_1" data-name="Layer 1" xmlns="http://www.w3.org/2000/svg" viewBox="0 0 167.9 167.9">
  <defs>
    <style>
      .cls-1 {
        fill: #ffffff;
      }
    </style>
  </defs>
  <path class="cls-1" d="M80.2,86.3c-9.67,0-19.35,0-29.02,0-1.12,0-1.94-.58-2.3-1.59-.33-.91-.07-1.97.75-2.55.39-.28.92-.39,1.4-.53.23-.07.49-.01.73-.01,18.81,0,37.62,0,56.43,0,2.99,0,5.23-1.62,6-4.31.9-3.18-1.1-6.56-4.3-7.27-3.31-.73-6.52,1.4-7.06,4.71-.06.38-.1.77-.12,1.16-.09,1.25-1.13,2.2-2.4,2.18-1.22-.02-2.23-1.01-2.28-2.22-.21-4.97,3.75-9.76,8.7-10.52,6.17-.95,11.52,3.03,12.37,9.21.73,5.35-3.35,10.79-8.69,11.59-.67.1-1.36.15-2.04.15-9.38,0-18.76,0-28.14,0Z"/>
  <path class="cls-1" d="M77.87,91c6.3,0,12.61,0,18.91,0,6.28,0,11.12,5.28,10.59,11.54-.42,4.96-4.61,9.14-9.56,9.55-5.23.43-10.04-2.98-11.22-8-.19-.82-.27-1.69-.3-2.53-.03-1.31,1.01-2.33,2.29-2.35,1.3-.01,2.32.95,2.38,2.27.16,3.16,2.03,5.34,5.03,5.85,3.02.51,6.05-1.65,6.57-4.68.56-3.23-1.49-6.29-4.6-6.82-.57-.1-1.16-.14-1.75-.14-12.63,0-25.26,0-37.89,0-1.53,0-2.57-.99-2.54-2.4.02-1.28,1.04-2.28,2.37-2.28,2.71-.01,5.42,0,8.13,0,3.86,0,7.72,0,11.58,0Z"/>
  <path class="cls-1" d="M75.52,76.92c-3.44,0-6.89,0-10.33,0-1.16,0-2.16-.84-2.34-1.92-.19-1.16.47-2.27,1.6-2.64.32-.1.67-.11,1.01-.12,6.47,0,12.95,0,19.42,0,3.15,0,5.48-1.97,6-5.01.52-3.02-1.63-6.07-4.66-6.59-3.24-.56-6.29,1.48-6.84,4.58-.07.41-.11.82-.14,1.23-.08,1.32-1.09,2.28-2.39,2.26-1.28-.02-2.27-1.03-2.3-2.36-.08-5.28,4-9.84,9.41-10.51,5.11-.63,10.17,2.9,11.39,7.96,1.63,6.74-3.37,13.11-10.31,13.12-3.18,0-6.35,0-9.53,0Z"/>
</svg>
