<?xml version="1.0" encoding="UTF-8" standalone="no"?>
<!DOCTYPE svg PUBLIC "-//W3C//DTD SVG 1.1//EN" "http://www.w3.org/Graphics/SVG/1.1/DTD/svg11.dtd">
<svg width="100%" height="100%" viewBox="0 0 1112 335" version="1.1" xmlns="http://www.w3.org/2000/svg" xmlns:xlink="http://www.w3.org/1999/xlink" xml:space="preserve" xmlns:serif="http://www.serif.com/" style="fill-rule:evenodd;clip-rule:evenodd;stroke-linejoin:round;stroke-miterlimit:2;">
    <g transform="matrix(1,0,0,1,-5662.03,-956)">
        <g transform="matrix(2,0,0,2,4360.5,0)">
            <g transform="matrix(1,0,0,1,804.687,601.326)">
                <path d="M0,-41.866C0,-35.212 4.853,-30.637 11.229,-30.637C18.021,-30.637 22.873,-34.934 22.873,-41.866C22.873,-48.797 18.021,-53.649 11.229,-53.649C4.99,-53.649 0.139,-48.797 0,-41.866M46.717,-67.65L46.717,-53.372L37.29,-53.372C38.815,-49.906 39.647,-46.024 39.647,-41.866C39.647,-31.33 34.38,-23.012 26.339,-18.577L46.024,-5.823C45.886,12.614 33.687,27.447 13.03,27.447C-5.961,27.447 -19.407,15.526 -19.546,-2.496L-2.495,-2.496C-2.495,3.604 2.356,11.228 13.03,11.228C22.181,11.228 26.478,6.238 28.003,1.109L-3.327,-18.577C-11.367,-23.012 -16.774,-31.33 -16.774,-41.866C-16.774,-58.223 -4.159,-69.313 11.506,-69.313C15.11,-69.313 18.437,-68.76 21.626,-67.65L46.717,-67.65Z" style="fill:rgb(249,249,249);fill-rule:nonzero;"/>
            </g>
        </g>
        <g transform="matrix(2,0,0,2,4360.5,0)">
            <g transform="matrix(1,0,0,1,910.18,566.115)">
                <path d="M0,0.277C0,-10.258 -7.764,-17.883 -18.16,-17.883C-28.418,-17.883 -36.043,-10.258 -36.043,0.277C-36.043,10.673 -28.279,18.16 -18.16,18.16C-7.764,18.16 0,10.536 0,0.277M-53.51,0.277C-53.51,-19.962 -37.846,-34.102 -18.021,-34.102C1.803,-34.102 17.467,-19.824 17.467,0.277C17.467,20.1 1.803,34.379 -18.16,34.379C-37.846,34.379 -53.51,20.239 -53.51,0.277" style="fill:rgb(249,249,249);fill-rule:nonzero;"/>
            </g>
        </g>
        <g transform="matrix(2,0,0,2,4360.5,0)">
            <g transform="matrix(1,0,0,1,987.67,575.541)">
                <path d="M0,-20.239L0,23.289L-17.328,23.289L-17.328,-18.16C-17.328,-23.427 -20.517,-27.448 -26.478,-27.448C-30.082,-27.448 -33.271,-25.23 -34.656,-22.319L-34.656,23.289L-51.984,23.289L-51.984,-41.865L-34.656,-41.865L-34.656,-38.954C-31.607,-41.588 -27.31,-43.528 -21.764,-43.528C-8.041,-43.528 0,-33.27 0,-20.239" style="fill:rgb(249,249,249);fill-rule:nonzero;"/>
            </g>
        </g>
        <g transform="matrix(2,0,0,2,4360.5,0)">
            <g transform="matrix(1,0,0,1,1046.59,555.579)">
                <path d="M0,21.348L0,0.139C-2.911,-3.881 -8.456,-7.347 -14.972,-7.347C-25.368,-7.347 -32.993,0.415 -32.993,10.535C-32.993,21.072 -25.368,28.696 -14.972,28.696C-8.317,28.696 -2.911,25.369 0,21.348M0,-21.903L17.328,-21.903L17.328,43.251L0.277,43.251L0.277,41.172C-4.575,43.667 -10.12,44.914 -16.081,44.914C-35.072,44.914 -50.46,30.636 -50.46,10.535C-50.46,-9.288 -35.072,-23.566 -16.081,-23.566C-10.12,-23.566 -4.713,-22.18 0,-19.547L0,-21.903Z" style="fill:rgb(249,249,249);fill-rule:nonzero;"/>
            </g>
        </g>
        <g transform="matrix(2,0,0,2,4360.5,0)">
            <g transform="matrix(1,0,0,1,1127.13,575.541)">
                <path d="M0,-20.239L0,23.289L-17.328,23.289L-17.328,-18.16C-17.328,-23.427 -20.517,-27.448 -26.478,-27.448C-30.082,-27.448 -33.271,-25.23 -34.656,-22.319L-34.656,23.289L-51.984,23.289L-51.984,-41.865L-34.656,-41.865L-34.656,-38.954C-31.606,-41.588 -27.31,-43.528 -21.765,-43.528C-8.04,-43.528 0,-33.27 0,-20.239" style="fill:rgb(249,249,249);fill-rule:nonzero;"/>
            </g>
        </g>
        <g transform="matrix(2,0,0,2,4360.5,0)">
            <g transform="matrix(1,0,0,1,1189.09,566.115)">
                <path d="M0,0.277C0,-10.258 -7.763,-17.883 -18.159,-17.883C-28.418,-17.883 -36.042,-10.258 -36.042,0.277C-36.042,10.673 -28.279,18.16 -18.159,18.16C-7.763,18.16 0,10.536 0,0.277M-53.51,0.277C-53.51,-19.962 -37.845,-34.102 -18.021,-34.102C1.803,-34.102 17.467,-19.824 17.467,0.277C17.467,20.1 1.803,34.379 -18.159,34.379C-37.845,34.379 -53.51,20.239 -53.51,0.277" style="fill:rgb(249,249,249);fill-rule:nonzero;"/>
            </g>
        </g>
        <g transform="matrix(2,0,0,2,4360.5,0)">
            <g transform="matrix(35.5246,0,0,-35.5246,683.747,563.478)">
                <path d="M0.146,2.26C-0.045,2.068 -0.049,1.76 0.135,1.564L0.135,1.564C0.443,1.234 0.443,0.721 0.135,0.39L0.135,0.39C-0.045,0.198 -0.045,-0.101 0.135,-0.293L0.135,-0.293C0.443,-0.623 0.443,-1.136 0.135,-1.467L0.135,-1.467C-0.049,-1.663 -0.045,-1.971 0.146,-2.162C0.342,-2.357 0.658,-2.357 0.854,-2.162C1.045,-1.971 1.049,-1.663 0.865,-1.467L0.865,-1.467C0.556,-1.136 0.556,-0.623 0.865,-0.293L0.865,-0.293C1.045,-0.101 1.045,0.198 0.865,0.39L0.865,0.39C0.556,0.721 0.556,1.234 0.865,1.564L0.865,1.564C1.049,1.76 1.045,2.068 0.854,2.26C0.756,2.357 0.628,2.406 0.5,2.406C0.372,2.406 0.244,2.357 0.146,2.26Z" style="fill:url(#_Linear1);fill-rule:nonzero;"/>
            </g>
        </g>
        <g transform="matrix(2,0,0,2,4360.5,0)">
            <g transform="matrix(35.5248,0,0,-35.5248,716.735,563.479)">
                <path d="M0.146,1.331C-0.045,1.14 -0.049,0.832 0.135,0.636L0.135,0.636C0.443,0.305 0.443,-0.208 0.135,-0.538L0.135,-0.538C-0.049,-0.734 -0.045,-1.042 0.146,-1.233C0.342,-1.429 0.658,-1.429 0.854,-1.233C1.045,-1.042 1.049,-0.734 0.865,-0.538L0.865,-0.538C0.557,-0.208 0.557,0.305 0.865,0.636L0.865,0.636C1.049,0.832 1.045,1.14 0.854,1.331C0.756,1.429 0.628,1.478 0.5,1.478C0.372,1.478 0.244,1.429 0.146,1.331Z" style="fill:url(#_Linear2);fill-rule:nonzero;"/>
            </g>
        </g>
        <g transform="matrix(2,0,0,2,4360.5,0)">
            <g transform="matrix(35.525,0,0,-35.525,650.763,563.477)">
                <path d="M0.146,1.331C-0.045,1.14 -0.049,0.832 0.135,0.636L0.135,0.636C0.443,0.305 0.443,-0.208 0.135,-0.538L0.135,-0.538C-0.048,-0.734 -0.045,-1.042 0.146,-1.233C0.342,-1.429 0.658,-1.429 0.854,-1.233C1.045,-1.042 1.048,-0.734 0.865,-0.538L0.865,-0.538C0.557,-0.208 0.557,0.305 0.865,0.636L0.865,0.636C1.048,0.832 1.045,1.14 0.854,1.331C0.756,1.429 0.628,1.478 0.5,1.478C0.372,1.478 0.244,1.429 0.146,1.331Z" style="fill:url(#_Linear3);fill-rule:nonzero;"/>
            </g>
        </g>
    </g>
    <defs>
        <linearGradient id="_Linear1" x1="0" y1="0" x2="1" y2="0" gradientUnits="userSpaceOnUse" gradientTransform="matrix(1,0,0,-1,0,0.0488394)"><stop offset="0" style="stop-color:rgb(103,92,231);stop-opacity:1"/><stop offset="1" style="stop-color:rgb(133,131,242);stop-opacity:1"/><stop offset="1" style="stop-color:rgb(133,131,242);stop-opacity:1"/></linearGradient>
        <linearGradient id="_Linear2" x1="0" y1="0" x2="1" y2="0" gradientUnits="userSpaceOnUse" gradientTransform="matrix(1,0,0,-1,0,0.0488954)"><stop offset="0" style="stop-color:rgb(103,92,231);stop-opacity:1"/><stop offset="1" style="stop-color:rgb(133,131,242);stop-opacity:1"/><stop offset="1" style="stop-color:rgb(133,131,242);stop-opacity:1"/></linearGradient>
        <linearGradient id="_Linear3" x1="0" y1="0" x2="1" y2="0" gradientUnits="userSpaceOnUse" gradientTransform="matrix(1,0,0,-1,0,0.0488388)"><stop offset="0" style="stop-color:rgb(103,92,231);stop-opacity:1"/><stop offset="1" style="stop-color:rgb(133,131,242);stop-opacity:1"/><stop offset="1" style="stop-color:rgb(133,131,242);stop-opacity:1"/></linearGradient>
    </defs>
</svg>
